<svg xmlns="http://www.w3.org/2000/svg" viewBox="0 0 765.3892 245.6042">
  <g id="full-rgb">
    <path id="fullLogo" d="M57.3038,122.3016a144.7159,144.7159,0,0,0-17.1678-5.1787c-5.8132-1.4274-10.508-2.763-13.9541-3.9708a21.2906,21.2906,0,0,1-8.105-4.9259,10.7865,10.7865,0,0,1-2.9967-8.0438A13.3314,13.3314,0,0,1,20.776,89.0156c3.9147-2.99,9.9309-4.5046,17.8815-4.5046a45.6753,45.6753,0,0,1,12.8944,1.9127,45.4379,45.4379,0,0,1,12.3657,5.72l5.2361-10.748a47.9067,47.9067,0,0,0-14.037-6.4249,59.54,59.54,0,0,0-16.4592-2.3135c-8.0017,0-14.83,1.2385-20.2959,3.6848-5.5362,2.4872-9.7164,5.8784-12.4245,10.079A25.523,25.523,0,0,0,1.868,100.4556c0,6.287,1.6713,11.3712,4.968,15.1122a29.9613,29.9613,0,0,0,11.5945,8.1408,148.7769,148.7769,0,0,0,17.3925,5.3166,137.998,137.998,0,0,1,13.852,3.9606,22.0683,22.0683,0,0,1,7.9352,4.8774,10.57,10.57,0,0,1,2.9852,7.9646,12.817,12.817,0,0,1-5.7418,10.8783c-3.9644,2.9136-10.102,4.39-18.2441,4.39a48.8915,48.8915,0,0,1-17.1409-3.1,36.3009,36.3009,0,0,1-13.1753-8.0081L0,160.0411c3.7053,3.8968,8.9874,7.0632,15.7007,9.4074A63.1594,63.1594,0,0,0,36.61,172.9444c8.0094,0,14.876-1.213,20.4058-3.6082,5.6357-2.4336,9.8913-5.7992,12.6466-10.005a25.2268,25.2268,0,0,0,4.1509-14.0473c0-6.1925-1.6509-11.2077-4.9068-14.91A29.5646,29.5646,0,0,0,57.3038,122.3016Z" style="fill: #fff"/>
    <rect id="fullLogo-2" data-name="fullLogo" x="97.8786" y="73.4744" width="13.3521" height="98.6554" style="fill: #fff"/>
    <path id="fullLogo-3" data-name="fullLogo" d="M229.6259,89.8276a41.4659,41.4659,0,0,1,20.1364-4.908c11.1209,0,20.4083,3.6006,27.6017,10.7021l8.6184-8.672a41.6078,41.6078,0,0,0-16.02-10.7149,57.8715,57.8715,0,0,0-20.6087-3.5775,54.8651,54.8651,0,0,0-26.6748,6.4682,48.1382,48.1382,0,0,0-18.6144,17.9773,52.2039,52.2039,0,0,0,0,51.3961,48.0661,48.0661,0,0,0,18.6144,17.9772,54.5486,54.5486,0,0,0,26.5369,6.4683,60.65,60.65,0,0,0,19.7418-3.2227,48.79,48.79,0,0,0,16.45-9.3921l.4214-.3881V122.8021l-35.4158-.0013V135.78H272.931v18.3317c-6.3827,4.3589-14.2222,6.57-23.3066,6.57a40.5619,40.5619,0,0,1-20.0508-4.9692,36.843,36.843,0,0,1-13.9694-13.5775,37.4209,37.4209,0,0,1-5.088-19.3332,37.8157,37.8157,0,0,1,5.088-19.4073A36.1393,36.1393,0,0,1,229.6259,89.8276Z" style="fill: #fff"/>
    <polygon id="fullLogo-4" data-name="fullLogo" points="171.058 73.474 121.73 122.802 171.061 172.13 189.549 172.13 140.221 122.802 189.549 73.474 171.058 73.474" style="fill: #fff"/>
    <polygon id="fullLogo-5" data-name="fullLogo" points="244.533 0 199.849 44.685 218.337 44.685 244.533 18.488 348.845 122.802 244.533 227.116 218.337 200.916 199.847 200.916 244.533 245.604 367.333 122.802 244.533 0" style="fill: #00bb7e"/>
    <path id="fullLogo-6" data-name="fullLogo" d="M416.5243,110.48a21.0969,21.0969,0,0,1-5.0877-.6475,13.9682,13.9682,0,0,1-4.1623-1.6465l.518-4.144a16.65,16.65,0,0,0,4.1438,1.776,16.048,16.048,0,0,0,4.4031.666,7.6891,7.6891,0,0,0,4.4031-1.073,3.4721,3.4721,0,0,0,1.5539-3.034,3.2629,3.2629,0,0,0-1.2766-2.6825,16.1371,16.1371,0,0,0-4.7915-2.1275q-4.5882-1.443-6.5119-3.404a7.1757,7.1757,0,0,1-1.9239-5.254,7.0992,7.0992,0,0,1,1.1653-4.0145,7.6464,7.6464,0,0,1,3.3669-2.738,12.5994,12.5994,0,0,1,5.1617-.98,18.1126,18.1126,0,0,1,4.3291.5365,15.5549,15.5549,0,0,1,3.8479,1.4615l-.7029,4.033a16.0655,16.0655,0,0,0-3.6077-1.48,13.9229,13.9229,0,0,0-3.7553-.555,6.8488,6.8488,0,0,0-3.959.962,3.1836,3.1836,0,0,0-1.3692,2.775,3.281,3.281,0,0,0,.5181,1.924,4.4858,4.4858,0,0,0,1.665,1.332,21.5391,21.5391,0,0,0,3.2561,1.258,23.8079,23.8079,0,0,1,5.4759,2.3865,8.15,8.15,0,0,1,2.8674,2.8675,7.5988,7.5988,0,0,1,.87,3.7,7.3782,7.3782,0,0,1-1.24,4.2365,8.0643,8.0643,0,0,1-3.5891,2.849A13.9441,13.9441,0,0,1,416.5243,110.48Z" style="fill: #fff"/>
    <path id="fullLogo-7" data-name="fullLogo" d="M432.6187,91.2031h3.9959l.0371,2.775q2.0343-3.3665,6.697-3.367a8.4136,8.4136,0,0,1,7.7146,4.699,11.2155,11.2155,0,0,1,1.1653,5.217,10.7068,10.7068,0,0,1-1.147,4.921,9.4263,9.4263,0,0,1-3.2375,3.6445,8.2781,8.2781,0,0,1-4.68,1.3875,8.4854,8.4854,0,0,1-3.7-.777,6.2147,6.2147,0,0,1-2.59-2.257v11.507h-4.2549Zm9.657,15.466a5.3239,5.3239,0,0,0,4.07-1.702,6.1883,6.1883,0,0,0,1.5911-4.403,6.3,6.3,0,0,0-1.5725-4.4215,5.7181,5.7181,0,0,0-8.177,0,6.2986,6.2986,0,0,0-1.5725,4.4215,6.1874,6.1874,0,0,0,1.5911,4.403A5.3231,5.3231,0,0,0,442.2757,106.6691Z" style="fill: #fff"/>
    <path id="fullLogo-8" data-name="fullLogo" d="M466.806,110.48a12.6664,12.6664,0,0,1-5.5869-1.1655,8.5816,8.5816,0,0,1-3.7371-3.4225,10.2173,10.2173,0,0,1-1.332-5.291,10.9646,10.9646,0,0,1,1.1655-5.106,8.8877,8.8877,0,0,1,3.3115-3.57,9.3077,9.3077,0,0,1,4.958-1.3135,9.1081,9.1081,0,0,1,4.5325,1.11,7.7113,7.7113,0,0,1,3.09,3.219,10.4189,10.4189,0,0,1,1.11,4.921,11.0932,11.0932,0,0,1-.148,2.109H460.4051a5.5993,5.5993,0,0,0,2.1646,3.7185,7.4978,7.4978,0,0,0,4.6064,1.3135,14.171,14.171,0,0,0,6.29-1.443l.4438,3.33a12.7,12.7,0,0,1-3.2559,1.1655A17.4636,17.4636,0,0,1,466.806,110.48Zm3.3672-11.729a5.42,5.42,0,0,0-1.3692-3.552,4.4758,4.4758,0,0,0-3.3669-1.258,4.81,4.81,0,0,0-3.4412,1.258,5.7088,5.7088,0,0,0-1.6279,3.552Z" style="fill: #fff"/>
    <path id="fullLogo-9" data-name="fullLogo" d="M485.1944,110.48a14.74,14.74,0,0,1-3.7556-.481,8.25,8.25,0,0,1-2.9043-1.295l.5549-3.589a10.8908,10.8908,0,0,0,2.8489,1.35,10.2614,10.2614,0,0,0,3.145.5365q3.7743,0,3.7742-2.072a1.778,1.778,0,0,0-.3516-1.1655,3.0813,3.0813,0,0,0-1.184-.777,25.0593,25.0593,0,0,0-2.4605-.8325,10.8384,10.8384,0,0,1-4.5879-2.3125,4.7969,4.7969,0,0,1-1.406-3.5705,4.9556,4.9556,0,0,1,1.961-4.144,8.56,8.56,0,0,1,5.3649-1.517,13.8433,13.8433,0,0,1,3.293.407,8.9373,8.9373,0,0,1,2.7009,1.073l-.5549,3.478a11.13,11.13,0,0,0-2.6084-1.073,10.3009,10.3009,0,0,0-2.7566-.407,5.0378,5.0378,0,0,0-2.4419.481,1.529,1.529,0,0,0-.851,1.406,1.7781,1.7781,0,0,0,.333,1.1285,2.9179,2.9179,0,0,0,1.0915.777,15.1845,15.1845,0,0,0,2.2385.7585,12.1657,12.1657,0,0,1,4.958,2.405,5.277,5.277,0,0,1-.6474,7.8995A9.65,9.65,0,0,1,485.1944,110.48Z" style="fill: #fff"/>
    <path id="fullLogo-10" data-name="fullLogo" d="M499.7723,86.8741a2.5932,2.5932,0,0,1-2.6641-2.664,2.5232,2.5232,0,0,1,.7586-1.887,2.8233,2.8233,0,0,1,3.811,0,2.5251,2.5251,0,0,1,.7586,1.887,2.5932,2.5932,0,0,1-2.6641,2.664Zm-2.1089,4.329h4.2549v18.685h-4.2549Z" style="fill: #fff"/>
    <path id="fullLogo-11" data-name="fullLogo" d="M513.462,110.48a7.33,7.33,0,0,1-4.9763-1.591,5.3941,5.3941,0,0,1-1.8316-4.292,5.9157,5.9157,0,0,1,2.09-4.7175,8.1984,8.1984,0,0,1,5.5317-1.7945,12.9616,12.9616,0,0,1,4.9209.888v-.148a4.47,4.47,0,0,0-1.332-3.4965,5.4993,5.4993,0,0,0-3.8111-1.2025,10.2063,10.2063,0,0,0-5.92,1.924l-.37-3.478a9.374,9.374,0,0,1,3.0342-1.4245,13.3654,13.3654,0,0,1,3.7368-.5365,8.727,8.727,0,0,1,6.3457,2.146,8.1389,8.1389,0,0,1,2.2014,6.105v11.026h-3.7l-.0743-2.109a5.5287,5.5287,0,0,1-2.3864,1.998A8.2245,8.2245,0,0,1,513.462,110.48Zm.6292-3.293a4.8115,4.8115,0,0,0,3.5888-1.35,5.6856,5.6856,0,0,0,1.48-3.7925,12.24,12.24,0,0,0-4.292-.814,5.4133,5.4133,0,0,0-3.1819.7955,2.6683,2.6683,0,0,0-1.11,2.3125,2.555,2.555,0,0,0,.9251,2.0905A3.9748,3.9748,0,0,0,514.0912,107.1871Z" style="fill: #fff"/>
    <path id="fullLogo-12" data-name="fullLogo" d="M528.9278,79.9181h4.2551v29.97h-4.2551Z" style="fill: #fff"/>
    <path id="fullLogo-13" data-name="fullLogo" d="M541.2855,86.8741a2.5932,2.5932,0,0,1-2.6641-2.664,2.5232,2.5232,0,0,1,.7586-1.887,2.8233,2.8233,0,0,1,3.811,0,2.525,2.525,0,0,1,.7585,1.887,2.5931,2.5931,0,0,1-2.664,2.664Zm-2.1089,4.329h4.2549v18.685h-4.2549Z" style="fill: #fff"/>
    <path id="fullLogo-14" data-name="fullLogo" d="M554.6424,110.48a14.7386,14.7386,0,0,1-3.7556-.481,8.253,8.253,0,0,1-2.9045-1.295l.5551-3.589a10.8862,10.8862,0,0,0,2.8489,1.35,10.2614,10.2614,0,0,0,3.145.5365q3.7738,0,3.774-2.072a1.78,1.78,0,0,0-.3514-1.1655,3.0829,3.0829,0,0,0-1.184-.777,25.0968,25.0968,0,0,0-2.4605-.8325,10.8406,10.8406,0,0,1-4.5881-2.3125,4.7965,4.7965,0,0,1-1.406-3.5705,4.9558,4.9558,0,0,1,1.9609-4.144,8.5614,8.5614,0,0,1,5.3652-1.517,13.8452,13.8452,0,0,1,3.293.407,8.9394,8.9394,0,0,1,2.7009,1.073l-.5549,3.478a11.1318,11.1318,0,0,0-2.6086-1.073,10.3,10.3,0,0,0-2.7566-.407,5.0376,5.0376,0,0,0-2.4419.481,1.5294,1.5294,0,0,0-.8511,1.406,1.78,1.78,0,0,0,.333,1.1285,2.92,2.92,0,0,0,1.0916.777,15.1928,15.1928,0,0,0,2.2385.7585,12.1631,12.1631,0,0,1,4.958,2.405,5.2769,5.2769,0,0,1-.6475,7.8995A9.6487,9.6487,0,0,1,554.6424,110.48Z" style="fill: #fff"/>
    <path id="fullLogo-15" data-name="fullLogo" d="M575.5838,110.48q-3.4409,0-5.0688-1.72t-1.628-5.4205v-8.547h-3.9221v-3.589h3.9221v-5.217h4.2549v5.217h6.1421v3.589h-6.1421v7.918a5.1645,5.1645,0,0,0,.7217,3.071,2.881,2.881,0,0,0,2.4605.962,7.2958,7.2958,0,0,0,3.478-.888l.4809,3.552a7.4461,7.4461,0,0,1-2.0722.777A11.45,11.45,0,0,1,575.5838,110.48Z" style="fill: #fff"/>
    <path id="fullLogo-16" data-name="fullLogo" d="M593.7135,110.48a12.6677,12.6677,0,0,1-5.5872-1.1655,8.582,8.582,0,0,1-3.7368-3.4225,10.2145,10.2145,0,0,1-1.332-5.291,10.9671,10.9671,0,0,1,1.1655-5.106,8.8856,8.8856,0,0,1,3.3115-3.57,9.3062,9.3062,0,0,1,4.958-1.3135,9.1083,9.1083,0,0,1,4.5325,1.11,7.7143,7.7143,0,0,1,3.09,3.219,10.4225,10.4225,0,0,1,1.11,4.921,11.1185,11.1185,0,0,1-.148,2.109H587.3123a5.6,5.6,0,0,0,2.1646,3.7185,7.4994,7.4994,0,0,0,4.6064,1.3135,14.17,14.17,0,0,0,6.29-1.443l.4441,3.33a12.702,12.702,0,0,1-3.2561,1.1655A17.46,17.46,0,0,1,593.7135,110.48Zm3.3669-11.729a5.4176,5.4176,0,0,0-1.3689-3.552,4.4764,4.4764,0,0,0-3.3669-1.258,4.8082,4.8082,0,0,0-3.4409,1.258,5.7059,5.7059,0,0,0-1.6282,3.552Z" style="fill: #fff"/>
    <path id="fullLogo-17" data-name="fullLogo" d="M606.33,91.2031h4.07l.0369,3.145a5.9033,5.9033,0,0,1,2.1645-2.553,5.8074,5.8074,0,0,1,3.2007-.888,6.4854,6.4854,0,0,1,1.11.111,5.1476,5.1476,0,0,1,1.0729.296l-.4069,3.996a5.5776,5.5776,0,0,0-2.22-.444,4.1708,4.1708,0,0,0-3.5149,1.6465,7.37,7.37,0,0,0-1.2583,4.5695v8.806H606.33Z" style="fill: #fff"/>
    <path id="fullLogo-18" data-name="fullLogo" d="M632.3768,86.8741a2.5931,2.5931,0,0,1-2.6638-2.664,2.5235,2.5235,0,0,1,.7585-1.887,2.8235,2.8235,0,0,1,3.8111,0,2.526,2.526,0,0,1,.7583,1.887,2.5928,2.5928,0,0,1-2.6641,2.664Zm-2.1089,4.329h4.2549v18.685h-4.2549Z" style="fill: #fff"/>
    <path id="fullLogo-19" data-name="fullLogo" d="M640.5164,91.2031h4.07l.0368,2.405a5.25,5.25,0,0,1,2.294-2.22,7.6071,7.6071,0,0,1,3.5149-.777,6.4882,6.4882,0,0,1,5.1616,2.0535,8.7027,8.7027,0,0,1,1.7944,5.9015v11.322h-4.2549V99.3431a6.084,6.084,0,0,0-.9433-3.737,3.441,3.441,0,0,0-2.9048-1.221,4.1136,4.1136,0,0,0-3.33,1.406,5.9091,5.9091,0,0,0-1.1841,3.922v10.175h-4.2552Z" style="fill: #fff"/>
    <path id="fullLogo-20" data-name="fullLogo" d="M663.2713,91.2031h4.07l.0371,2.405a5.2517,5.2517,0,0,1,2.2939-2.22,7.6074,7.6074,0,0,1,3.5151-.777,6.4875,6.4875,0,0,1,5.1614,2.0535,8.7038,8.7038,0,0,1,1.7947,5.9015v11.322h-4.2551V99.3431a6.0825,6.0825,0,0,0-.9436-3.737,3.44,3.44,0,0,0-2.9043-1.221,4.1137,4.1137,0,0,0-3.33,1.406,5.9091,5.9091,0,0,0-1.1841,3.922v10.175h-4.2549Z" style="fill: #fff"/>
    <path id="fullLogo-21" data-name="fullLogo" d="M695.4979,110.48a12.6664,12.6664,0,0,1-5.5869-1.1655,8.5816,8.5816,0,0,1-3.7371-3.4225,10.2173,10.2173,0,0,1-1.332-5.291,10.9646,10.9646,0,0,1,1.1655-5.106,8.8877,8.8877,0,0,1,3.3115-3.57,9.3077,9.3077,0,0,1,4.958-1.3135,9.1083,9.1083,0,0,1,4.5325,1.11,7.71,7.71,0,0,1,3.0894,3.219,10.4166,10.4166,0,0,1,1.11,4.921,11.0932,11.0932,0,0,1-.148,2.109H689.097a5.5993,5.5993,0,0,0,2.1646,3.7185,7.4978,7.4978,0,0,0,4.6064,1.3135,14.1712,14.1712,0,0,0,6.29-1.443l.4439,3.33a12.7018,12.7018,0,0,1-3.2559,1.1655A17.4656,17.4656,0,0,1,695.4979,110.48Zm3.3672-11.729a5.42,5.42,0,0,0-1.3692-3.552,4.4761,4.4761,0,0,0-3.3672-1.258,4.81,4.81,0,0,0-3.4409,1.258,5.7088,5.7088,0,0,0-1.6279,3.552Z" style="fill: #fff"/>
    <path id="fullLogo-22" data-name="fullLogo" d="M708.1143,91.2031h4.07l.0371,2.405a5.25,5.25,0,0,1,2.294-2.22,7.6071,7.6071,0,0,1,3.5149-.777,6.4871,6.4871,0,0,1,5.1613,2.0535,8.7028,8.7028,0,0,1,1.7947,5.9015v11.322h-4.2551V99.3431a6.0839,6.0839,0,0,0-.9434-3.737,3.44,3.44,0,0,0-2.9045-1.221,4.1133,4.1133,0,0,0-3.33,1.406,5.9074,5.9074,0,0,0-1.1841,3.922v10.175h-4.2552Z" style="fill: #fff"/>
    <path id="fullLogo-23" data-name="fullLogo" d="M407.9771,137.6031h3.9961l.0369,2.775q2.0346-3.3664,6.697-3.367a8.4136,8.4136,0,0,1,7.7146,4.699,11.2155,11.2155,0,0,1,1.1655,5.217,10.71,10.71,0,0,1-1.1469,4.921,9.4266,9.4266,0,0,1-3.2376,3.6445,8.2786,8.2786,0,0,1-4.68,1.3875,8.4863,8.4863,0,0,1-3.7-.777,6.2139,6.2139,0,0,1-2.59-2.257v11.507h-4.2552Zm9.657,15.466a5.3247,5.3247,0,0,0,4.07-1.702,6.19,6.19,0,0,0,1.5911-4.403,6.301,6.301,0,0,0-1.5726-4.4215,5.7181,5.7181,0,0,0-8.177,0,6.2977,6.2977,0,0,0-1.5725,4.4215,6.1865,6.1865,0,0,0,1.5911,4.403A5.3224,5.3224,0,0,0,417.6341,153.0691Z" style="fill: #fff"/>
    <path id="fullLogo-24" data-name="fullLogo" d="M432.3968,137.6031h4.07l.0371,3.145a5.9022,5.9022,0,0,1,2.1646-2.553,5.8064,5.8064,0,0,1,3.2-.888,6.4885,6.4885,0,0,1,1.11.111,5.1387,5.1387,0,0,1,1.0728.296l-.4067,3.996a5.578,5.578,0,0,0-2.22-.444,4.1707,4.1707,0,0,0-3.5148,1.6465,7.37,7.37,0,0,0-1.2581,4.57v8.806h-4.2549Z" style="fill: #fff"/>
    <path id="fullLogo-25" data-name="fullLogo" d="M456.4093,156.88a10.2032,10.2032,0,0,1-4.9949-1.2395,9.3547,9.3547,0,0,1-3.6077-3.5335,10.4349,10.4349,0,0,1-.0925-10.101,9.6318,9.6318,0,0,1,3.552-3.626,9.8457,9.8457,0,0,1,5.1431-1.369,10.2045,10.2045,0,0,1,4.9948,1.2395,9.4058,9.4058,0,0,1,3.6077,3.515,10.4714,10.4714,0,0,1,.0925,10.1195,9.63,9.63,0,0,1-3.552,3.626A9.8482,9.8482,0,0,1,456.4093,156.88Zm0-3.811a5.2835,5.2835,0,0,0,4.0886-1.72,6.3,6.3,0,0,0,1.5723-4.4215,6.1913,6.1913,0,0,0-1.5909-4.403,5.7174,5.7174,0,0,0-8.14,0,6.1891,6.1891,0,0,0-1.5908,4.403,6.2981,6.2981,0,0,0,1.5722,4.4215A5.282,5.282,0,0,0,456.4093,153.0691Z" style="fill: #fff"/>
    <path id="fullLogo-26" data-name="fullLogo" d="M472.3929,141.1921H468.804v-3.589h3.5889v-2.627a9.7327,9.7327,0,0,1,1.98-6.549,7.1387,7.1387,0,0,1,5.7166-2.294,12.4334,12.4334,0,0,1,2.2014.2035,7.61,7.61,0,0,1,1.9055.5735l-.4441,3.552a9.1766,9.1766,0,0,0-3.2188-.592,3.3486,3.3486,0,0,0-2.96,1.332,7.5246,7.5246,0,0,0-.925,4.218v2.183H482.05v3.589h-5.4021v15.096h-4.2549Z" style="fill: #fff"/>
    <path id="fullLogo-27" data-name="fullLogo" d="M488.45,133.2741a2.5928,2.5928,0,0,1-2.6638-2.664,2.523,2.523,0,0,1,.7583-1.887,2.8233,2.8233,0,0,1,3.811,0,2.525,2.525,0,0,1,.7585,1.887,2.5931,2.5931,0,0,1-2.664,2.664Zm-2.1089,4.329h4.2549v18.685h-4.2549Z" style="fill: #fff"/>
    <path id="fullLogo-28" data-name="fullLogo" d="M496.59,126.3181h4.2549v29.97H496.59Z" style="fill: #fff"/>
    <path id="fullLogo-29" data-name="fullLogo" d="M516.3109,156.88a12.6658,12.6658,0,0,1-5.5869-1.1655,8.58,8.58,0,0,1-3.7371-3.4225,10.2173,10.2173,0,0,1-1.332-5.291,10.9646,10.9646,0,0,1,1.1655-5.106,8.8872,8.8872,0,0,1,3.3113-3.5705,9.3072,9.3072,0,0,1,4.958-1.3135,9.1086,9.1086,0,0,1,4.5327,1.11,7.7114,7.7114,0,0,1,3.0894,3.219,10.42,10.42,0,0,1,1.11,4.921,11.11,11.11,0,0,1-.148,2.109H509.91a5.6,5.6,0,0,0,2.1645,3.7185,7.499,7.499,0,0,0,4.6064,1.3135,14.17,14.17,0,0,0,6.29-1.443l.4441,3.33a12.702,12.702,0,0,1-3.2561,1.1655A17.4624,17.4624,0,0,1,516.3109,156.88Zm3.3669-11.729a5.4192,5.4192,0,0,0-1.3689-3.552,4.4761,4.4761,0,0,0-3.3672-1.258,4.8093,4.8093,0,0,0-3.4409,1.258,5.7073,5.7073,0,0,0-1.6279,3.552Z" style="fill: #fff"/>
    <path id="fullLogo-30" data-name="fullLogo" d="M528.9273,137.6031h4.07l.0369,3.145a5.902,5.902,0,0,1,2.1645-2.553,5.8067,5.8067,0,0,1,3.2005-.888,6.4815,6.4815,0,0,1,1.11.111,5.14,5.14,0,0,1,1.0733.296l-.4073,3.996a5.5747,5.5747,0,0,0-2.22-.444,4.1716,4.1716,0,0,0-3.5151,1.6465,7.37,7.37,0,0,0-1.2581,4.57v8.806h-4.2549Z" style="fill: #fff"/>
    <path id="fullLogo-31" data-name="fullLogo" d="M553.7909,156.88q-3.4413,0-5.0691-1.72t-1.6282-5.4205v-8.547h-3.9219v-3.589h3.9219v-5.217h4.2551v5.217h6.1421v3.589h-6.1421v7.918a5.1661,5.1661,0,0,0,.7215,3.071,2.8807,2.8807,0,0,0,2.46.962,7.2934,7.2934,0,0,0,3.478-.888l.481,3.552a7.4443,7.4443,0,0,1-2.0718.777A11.4514,11.4514,0,0,1,553.7909,156.88Z" style="fill: #fff"/>
    <path id="fullLogo-32" data-name="fullLogo" d="M580.6519,156.88a14.2854,14.2854,0,0,1-6.0678-1.2025A9.15,9.15,0,0,1,570.57,152.2a10.074,10.074,0,0,1-1.4246-5.4575,10.8526,10.8526,0,0,1,1.221-5.18,9.07,9.07,0,0,1,3.4965-3.626,10.2433,10.2433,0,0,1,5.2725-1.332,9.1518,9.1518,0,0,1,6.8264,2.5715,9.5052,9.5052,0,0,1,2.5344,6.9745,10.6376,10.6376,0,0,1-.2219,2.294h-12.58a4.083,4.083,0,0,0,1.9427,2.46,8.0384,8.0384,0,0,0,3.9035.7955,16.0372,16.0372,0,0,0,3.219-.333,12.7934,12.7934,0,0,0,2.886-.925l.592,4.995a14.743,14.743,0,0,1-3.4965,1.073A22.2454,22.2454,0,0,1,580.6519,156.88Zm1.6282-12.432a3.6509,3.6509,0,0,0-1.0176-2.331,3.0673,3.0673,0,0,0-2.2385-.851q-2.812,0-3.4409,3.182Z" style="fill: #fff"/>
    <path id="fullLogo-33" data-name="fullLogo" d="M592.3438,137.1961h6.4751l.074,2.331a5.091,5.091,0,0,1,2.1646-2.1645,7.0263,7.0263,0,0,1,3.3483-.7585,6.4623,6.4623,0,0,1,3.2933.814,5.7877,5.7877,0,0,1,2.22,2.331,5.71,5.71,0,0,1,2.3682-2.3125,7.4825,7.4825,0,0,1,3.5888-.8325,6.2152,6.2152,0,0,1,5.0506,2.0535,9.1506,9.1506,0,0,1,1.72,6.0125v11.618h-6.623v-10.36a4.3669,4.3669,0,0,0-.61-2.5715,2.2059,2.2059,0,0,0-1.9055-.8325,2.3426,2.3426,0,0,0-1.998.9435,4.4934,4.4934,0,0,0-.7029,2.7195v10.101h-6.6231v-10.36a4.3668,4.3668,0,0,0-.6106-2.5715,2.1645,2.1645,0,0,0-1.8684-.8325,2.3815,2.3815,0,0,0-2.0351.9435,4.4948,4.4948,0,0,0-.7029,2.7195v10.101h-6.6231Z" style="fill: #fff"/>
    <path id="fullLogo-34" data-name="fullLogo" d="M638.8153,156.88a6.8981,6.8981,0,0,1-3.1634-.7215,5.7129,5.7129,0,0,1-2.2756-2.0535l-.0737,2.183h-6.2532v-29.97h6.66v12.617a5.9039,5.9039,0,0,1,2.2756-1.7205A7.4036,7.4036,0,0,1,639,136.6041a8.1374,8.1374,0,0,1,4.44,1.24,8.63,8.63,0,0,1,3.1081,3.5335,12.58,12.58,0,0,1,.0369,10.4155,9.2043,9.2043,0,0,1-3.145,3.7A8.0173,8.0173,0,0,1,638.8153,156.88Zm-1.628-5.92a3.6292,3.6292,0,0,0,2.7935-1.184,4.7615,4.7615,0,0,0,0-6.068,3.6309,3.6309,0,0,0-2.7935-1.184,3.5727,3.5727,0,0,0-2.7749,1.184,4.8259,4.8259,0,0,0,0,6.068A3.571,3.571,0,0,0,637.1873,150.96Z" style="fill: #fff"/>
    <path id="fullLogo-35" data-name="fullLogo" d="M656.908,156.88a6.5782,6.5782,0,0,1-4.6806-1.6095,5.7127,5.7127,0,0,1-1.72-4.3845A5.7714,5.7714,0,0,1,652.56,146.28a7.9939,7.9939,0,0,1,5.3838-1.7575,11.6435,11.6435,0,0,1,2.2754.24,11.2445,11.2445,0,0,1,2.1645.6475,3.6539,3.6539,0,0,0-1.1841-2.738,4.8954,4.8954,0,0,0-3.1821-.888,10.2865,10.2865,0,0,0-5.8457,1.813l-.4443-5.143a11.7265,11.7265,0,0,1,3.3115-1.332,15.9507,15.9507,0,0,1,3.9775-.518q4.6986,0,7.1411,2.3125t2.4419,6.7155v10.656h-6.0307l-.0742-1.85A6.6254,6.6254,0,0,1,656.908,156.88Zm2.0721-4.403a3.0686,3.0686,0,0,0,2.3125-.9435,4.1236,4.1236,0,0,0,1.0544-2.5715,7.7054,7.7054,0,0,0-2.9228-.555,3.4075,3.4075,0,0,0-2.0538.555,1.7443,1.7443,0,0,0-.7583,1.48,1.85,1.85,0,0,0,.6475,1.48A2.5515,2.5515,0,0,0,658.98,152.4771Z" style="fill: #fff"/>
    <path id="fullLogo-36" data-name="fullLogo" d="M672.7806,126.3181h6.66v29.97h-6.66Z" style="fill: #fff"/>
    <path id="fullLogo-37" data-name="fullLogo" d="M683.9539,126.3181h6.66v29.97h-6.66Z" style="fill: #fff"/>
    <path id="fullLogo-38" data-name="fullLogo" d="M700.7147,156.88a6.5784,6.5784,0,0,1-4.6807-1.6095,5.7127,5.7127,0,0,1-1.72-4.3845,5.7714,5.7714,0,0,1,2.0532-4.6065,7.9941,7.9941,0,0,1,5.3838-1.7575,11.6419,11.6419,0,0,1,2.2754.24,11.2456,11.2456,0,0,1,2.1646.6475,3.6546,3.6546,0,0,0-1.1841-2.738,4.8957,4.8957,0,0,0-3.1822-.888,10.2868,10.2868,0,0,0-5.8457,1.813l-.4443-5.143a11.7265,11.7265,0,0,1,3.3115-1.332,15.952,15.952,0,0,1,3.9776-.518q4.6984,0,7.1411,2.3125t2.4419,6.7155v10.656h-6.0308l-.0742-1.85A6.6252,6.6252,0,0,1,700.7147,156.88Zm2.072-4.403a3.0682,3.0682,0,0,0,2.3125-.9435,4.1231,4.1231,0,0,0,1.0545-2.5715,7.7059,7.7059,0,0,0-2.9229-.555,3.4072,3.4072,0,0,0-2.0537.555,1.7441,1.7441,0,0,0-.7583,1.48,1.8506,1.8506,0,0,0,.6474,1.48A2.5515,2.5515,0,0,0,702.7867,152.4771Z" style="fill: #fff"/>
    <path id="fullLogo-39" data-name="fullLogo" d="M723.4322,156.88a18.0168,18.0168,0,0,1-4.3474-.518,10.01,10.01,0,0,1-3.3115-1.369l.74-4.847a11.5047,11.5047,0,0,0,3.1082,1.3875,12.2953,12.2953,0,0,0,3.404.4995q2.4046,0,2.4048-1.147a1.0309,1.0309,0,0,0-.5547-.925,10.08,10.08,0,0,0-2.2573-.777,11.2074,11.2074,0,0,1-5.0132-2.405,5.46,5.46,0,0,1-1.4985-4.07,5.2777,5.2777,0,0,1,2.1828-4.477,9.8278,9.8278,0,0,1,5.9939-1.628,17.7784,17.7784,0,0,1,3.7925.407,10.8539,10.8539,0,0,1,3.09,1.11l-.666,4.773a14.0452,14.0452,0,0,0-2.886-1.0545,12.08,12.08,0,0,0-2.9228-.3885q-2.0355,0-2.0352,1.11a1.0618,1.0618,0,0,0,.5921.9435,9.3466,9.3466,0,0,0,2.257.7585,10.6054,10.6054,0,0,1,4.9949,2.405,5.6017,5.6017,0,0,1,1.554,4.144,5.1613,5.1613,0,0,1-2.2569,4.477A10.9333,10.9333,0,0,1,723.4322,156.88Z" style="fill: #fff"/>
    <path id="fullLogo-40" data-name="fullLogo" d="M734.31,165.6861a15.6711,15.6711,0,0,1-2.9415-.259,6.0793,6.0793,0,0,1-2.0534-.703l.666-5.439a7.2884,7.2884,0,0,0,2.8489.592,2.7831,2.7831,0,0,0,2.22-.814,3.9881,3.9881,0,0,0,.7032-2.627v-19.24h6.66v19.758q0,4.2916-2.072,6.512A7.851,7.851,0,0,1,734.31,165.6861Zm4.7731-31.487a3.7193,3.7193,0,0,1-2.664-1.0175,3.3474,3.3474,0,0,1-1.0733-2.5345,3.4079,3.4079,0,0,1,1.0733-2.553,3.943,3.943,0,0,1,5.3279,0,3.41,3.41,0,0,1,1.073,2.553,3.35,3.35,0,0,1-1.073,2.5345A3.7214,3.7214,0,0,1,739.0828,134.1991Z" style="fill: #fff"/>
    <path id="fullLogo-41" data-name="fullLogo" d="M757.5453,156.88a14.2849,14.2849,0,0,1-6.0679-1.2025,9.15,9.15,0,0,1-4.0147-3.478,10.0765,10.0765,0,0,1-1.4243-5.4575,10.8536,10.8536,0,0,1,1.2207-5.18,9.0721,9.0721,0,0,1,3.4966-3.626,10.2438,10.2438,0,0,1,5.2725-1.332,9.152,9.152,0,0,1,6.8266,2.5715,9.5052,9.5052,0,0,1,2.5344,6.9745,10.6376,10.6376,0,0,1-.2219,2.294h-12.58a4.084,4.084,0,0,0,1.9424,2.46,8.0408,8.0408,0,0,0,3.9038.7955,16.0353,16.0353,0,0,0,3.2188-.333,12.7919,12.7919,0,0,0,2.8862-.925l.5918,4.995a14.7424,14.7424,0,0,1-3.4966,1.073A22.24,22.24,0,0,1,757.5453,156.88Zm1.6279-12.432a3.6489,3.6489,0,0,0-1.0176-2.331,3.0669,3.0669,0,0,0-2.2383-.851q-2.8125,0-3.4409,3.182Z" style="fill: #fff"/>
  </g>
</svg>
